<mxfile host="app.diagrams.net" modified="2024-05-09T17:37:15.883Z" agent="Mozilla/5.0 (Windows NT 10.0; Win64; x64) AppleWebKit/537.36 (KHTML, like Gecko) Chrome/123.0.0.0 Safari/537.36" etag="XTFaTKjBTgUIt2AOBiIl" version="24.3.1" type="device">
  <diagram name="Page-1" id="OPa6SwdtRS360iscmPK9">
    <mxGraphModel dx="1848" dy="772" grid="1" gridSize="10" guides="1" tooltips="1" connect="1" arrows="1" fold="1" page="1" pageScale="1" pageWidth="850" pageHeight="1100" math="0" shadow="0">
      <root>
        <mxCell id="0" />
        <mxCell id="1" parent="0" />
        <mxCell id="UWBxOzK0PECX-GbXQOGK-8" value="&lt;p style=&quot;margin:0px;margin-top:4px;text-align:center;&quot;&gt;&lt;b&gt;Transaction&amp;nbsp;&lt;/b&gt;&lt;br&gt;&lt;/p&gt;&lt;hr size=&quot;1&quot; style=&quot;border-style:solid;&quot;&gt;&lt;p style=&quot;margin:0px;margin-left:4px;&quot;&gt;+ id: Long&lt;/p&gt;&lt;p style=&quot;margin:0px;margin-left:4px;&quot;&gt;+ trxAmount: BigDecimal&lt;/p&gt;&lt;p style=&quot;margin:0px;margin-left:4px;&quot;&gt;+ trxDate: Date&lt;/p&gt;&lt;p style=&quot;margin:0px;margin-left:4px;&quot;&gt;+ trxTime: Time&lt;/p&gt;&lt;p style=&quot;margin:0px;margin-left:4px;&quot;&gt;+ description: String&lt;/p&gt;&lt;p style=&quot;margin:0px;margin-left:4px;&quot;&gt;+ accountNumber: Long&lt;/p&gt;&lt;p style=&quot;margin:0px;margin-left:4px;&quot;&gt;+ customerId: Long&lt;/p&gt;" style="verticalAlign=top;align=left;overflow=fill;html=1;whiteSpace=wrap;" vertex="1" parent="1">
          <mxGeometry x="70" y="70" width="170" height="160" as="geometry" />
        </mxCell>
        <mxCell id="UWBxOzK0PECX-GbXQOGK-10" value="&lt;p style=&quot;margin:0px;margin-top:4px;text-align:center;&quot;&gt;&lt;i&gt;&amp;lt;&amp;lt;Interface&amp;gt;&amp;gt;&lt;/i&gt;&lt;br&gt;&lt;b&gt;TransactionService&amp;nbsp;&lt;/b&gt;&lt;/p&gt;&lt;hr size=&quot;1&quot; style=&quot;border-style:solid;&quot;&gt;&lt;p style=&quot;margin:0px;margin-left:4px;&quot;&gt;+ getAllTransactionsByCriteria(Map&amp;lt;String, Object&amp;gt; Pageable): Page&amp;lt;Transaction&amp;gt;&lt;/p&gt;" style="verticalAlign=top;align=left;overflow=fill;html=1;whiteSpace=wrap;" vertex="1" parent="1">
          <mxGeometry x="330" y="70" width="460" height="120" as="geometry" />
        </mxCell>
        <mxCell id="UWBxOzK0PECX-GbXQOGK-15" value="&lt;p style=&quot;margin:0px;margin-top:4px;text-align:center;&quot;&gt;&lt;i&gt;&amp;lt;&amp;lt;@RestController&amp;gt;&amp;gt;&lt;/i&gt;&lt;br&gt;&lt;b&gt;TransactionController&lt;/b&gt;&lt;br&gt;&lt;/p&gt;&lt;hr size=&quot;1&quot; style=&quot;border-style:solid;&quot;&gt;&lt;p style=&quot;margin:0px;margin-left:4px;&quot;&gt;+ transactionService: TransactionService&amp;nbsp;&lt;br&gt;&lt;/p&gt;&lt;hr size=&quot;1&quot; style=&quot;border-style:solid;&quot;&gt;&lt;p style=&quot;margin:0px;margin-left:4px;&quot;&gt;+ getAllTransactionsByCriteria(@RequestBody Map&amp;lt;String, Object&amp;gt;, Pageable): ResponseEntity&amp;lt;Page&amp;lt;Transaction&amp;gt;&amp;gt;&lt;br&gt;+ batchUpdateDescription(@RequestBody List&amp;lt;UpdateTransactionDto&amp;gt; transactions): void&lt;/p&gt;" style="verticalAlign=top;align=left;overflow=fill;html=1;whiteSpace=wrap;" vertex="1" parent="1">
          <mxGeometry x="310" y="490" width="500" height="150" as="geometry" />
        </mxCell>
        <mxCell id="UWBxOzK0PECX-GbXQOGK-20" value="&lt;span style=&quot;font-weight: 400;&quot;&gt;TransactionServiceimpl&lt;/span&gt;" style="swimlane;fontStyle=1;align=center;verticalAlign=top;childLayout=stackLayout;horizontal=1;startSize=26;horizontalStack=0;resizeParent=1;resizeParentMax=0;resizeLast=0;collapsible=1;marginBottom=0;whiteSpace=wrap;html=1;" vertex="1" parent="1">
          <mxGeometry x="330" y="280" width="460" height="150" as="geometry" />
        </mxCell>
        <mxCell id="UWBxOzK0PECX-GbXQOGK-21" value="+ transactionRepo: TransactionRepo" style="text;strokeColor=none;fillColor=none;align=left;verticalAlign=top;spacingLeft=4;spacingRight=4;overflow=hidden;rotatable=0;points=[[0,0.5],[1,0.5]];portConstraint=eastwest;whiteSpace=wrap;html=1;" vertex="1" parent="UWBxOzK0PECX-GbXQOGK-20">
          <mxGeometry y="26" width="460" height="26" as="geometry" />
        </mxCell>
        <mxCell id="UWBxOzK0PECX-GbXQOGK-22" value="" style="line;strokeWidth=1;fillColor=none;align=left;verticalAlign=middle;spacingTop=-1;spacingLeft=3;spacingRight=3;rotatable=0;labelPosition=right;points=[];portConstraint=eastwest;strokeColor=inherit;" vertex="1" parent="UWBxOzK0PECX-GbXQOGK-20">
          <mxGeometry y="52" width="460" height="8" as="geometry" />
        </mxCell>
        <mxCell id="UWBxOzK0PECX-GbXQOGK-24" value="+ getAllTransactionsByCriteria(Map&amp;lt;String, Object&amp;gt; Pageable): Page&amp;lt;Transaction&amp;gt;" style="text;strokeColor=none;fillColor=none;align=left;verticalAlign=top;spacingLeft=4;spacingRight=4;overflow=hidden;rotatable=0;points=[[0,0.5],[1,0.5]];portConstraint=eastwest;whiteSpace=wrap;html=1;" vertex="1" parent="UWBxOzK0PECX-GbXQOGK-20">
          <mxGeometry y="60" width="460" height="26" as="geometry" />
        </mxCell>
        <mxCell id="UWBxOzK0PECX-GbXQOGK-25" value="+ getSpecification(Map&amp;lt;String, Object&amp;gt; criteria): Specification&amp;lt;Transaction&amp;gt;" style="text;strokeColor=none;fillColor=none;align=left;verticalAlign=top;spacingLeft=4;spacingRight=4;overflow=hidden;rotatable=0;points=[[0,0.5],[1,0.5]];portConstraint=eastwest;whiteSpace=wrap;html=1;" vertex="1" parent="UWBxOzK0PECX-GbXQOGK-20">
          <mxGeometry y="86" width="460" height="26" as="geometry" />
        </mxCell>
        <mxCell id="UWBxOzK0PECX-GbXQOGK-23" value="+ batchUpdateDescription(List&amp;lt;UpdateTransactionDto&amp;gt; transactions): void" style="text;strokeColor=none;fillColor=none;align=left;verticalAlign=top;spacingLeft=4;spacingRight=4;overflow=hidden;rotatable=0;points=[[0,0.5],[1,0.5]];portConstraint=eastwest;whiteSpace=wrap;html=1;" vertex="1" parent="UWBxOzK0PECX-GbXQOGK-20">
          <mxGeometry y="112" width="460" height="38" as="geometry" />
        </mxCell>
        <mxCell id="UWBxOzK0PECX-GbXQOGK-26" value="+ batchUpdateDescription(List&amp;lt;UpdateTransactionDto&amp;gt; transactions): void" style="text;strokeColor=none;fillColor=none;align=left;verticalAlign=top;spacingLeft=4;spacingRight=4;overflow=hidden;rotatable=0;points=[[0,0.5],[1,0.5]];portConstraint=eastwest;whiteSpace=wrap;html=1;" vertex="1" parent="1">
          <mxGeometry x="330" y="131" width="460" height="38" as="geometry" />
        </mxCell>
        <mxCell id="UWBxOzK0PECX-GbXQOGK-27" value="" style="endArrow=block;dashed=1;endFill=0;endSize=12;html=1;rounded=0;" edge="1" parent="1" source="UWBxOzK0PECX-GbXQOGK-20" target="UWBxOzK0PECX-GbXQOGK-10">
          <mxGeometry width="160" relative="1" as="geometry">
            <mxPoint x="450" y="210" as="sourcePoint" />
            <mxPoint x="660" y="230" as="targetPoint" />
          </mxGeometry>
        </mxCell>
        <mxCell id="UWBxOzK0PECX-GbXQOGK-28" value="«interface»&lt;br&gt;&lt;b&gt;TransactionRepo&lt;/b&gt;" style="html=1;whiteSpace=wrap;" vertex="1" parent="1">
          <mxGeometry x="100" y="280" width="110" height="50" as="geometry" />
        </mxCell>
      </root>
    </mxGraphModel>
  </diagram>
</mxfile>
